<?xml version="1.0" encoding="utf-8"?>
<!-- Generator: Adobe Illustrator 20.1.0, SVG Export Plug-In . SVG Version: 6.00 Build 0)  -->
<svg version="1.1" id="Слой_1" xmlns="http://www.w3.org/2000/svg" xmlns:xlink="http://www.w3.org/1999/xlink" x="0px" y="0px"
	 viewBox="0 0 32 25.1" style="enable-background:new 0 0 32 25.1;" xml:space="preserve">
<style type="text/css">
	.st0{fill:#E24B6C;}
</style>
<path class="st0" d="M32,8.1v14.2c0,0.8-0.3,1.5-0.8,2s-1.2,0.8-2,0.8H2.9c-0.8,0-1.5-0.3-2-0.8S0,23.1,0,22.3V8.1
	c0.5,0.6,1.1,1.1,1.8,1.6c4.3,2.9,7.3,5,8.9,6.2c0.7,0.5,1.2,0.9,1.7,1.2c0.4,0.3,1,0.6,1.7,0.9s1.4,0.4,2,0.4l0,0
	c0.6,0,1.3-0.1,2-0.4s1.3-0.6,1.7-0.9c0.4-0.3,1-0.7,1.7-1.2c2-1.5,5-3.5,8.9-6.2C30.9,9.2,31.5,8.7,32,8.1z M32,2.9
	c0,0.9-0.3,1.8-0.9,2.7s-1.3,1.6-2.2,2.2c-4.5,3.1-7.3,5-8.4,5.8c-0.1,0.1-0.4,0.3-0.8,0.5s-0.7,0.5-1,0.7s-0.6,0.4-0.9,0.6
	c-0.4,0.2-0.7,0.4-1,0.5c-0.2,0-0.5,0.1-0.8,0.1l0,0c-0.3,0-0.6-0.1-0.9-0.2c-0.3-0.1-0.7-0.3-1-0.5c-0.4-0.2-0.7-0.4-0.9-0.6
	c-0.3-0.2-0.6-0.4-1-0.7s-0.6-0.5-0.8-0.5c-1.1-0.8-2.6-1.8-4.7-3.3S3.5,8,3.1,7.8C2.3,7.3,1.6,6.6,1,5.7S0,4,0,3.3
	C0,2.4,0.2,1.6,0.7,1s1.2-1,2.2-1h26.3c0.8,0,1.4,0.3,2,0.8S32,2.1,32,2.9z"/>
</svg>
