<?xml version="1.0" encoding="utf-8"?>
<!-- Generator: Adobe Illustrator 23.0.1, SVG Export Plug-In . SVG Version: 6.00 Build 0)  -->
<svg version="1.1"
	 id="Layer_1" inkscape:version="0.91 r13725" sodipodi:docname="Logo .svg" xmlns:cc="http://creativecommons.org/ns#" xmlns:dc="http://purl.org/dc/elements/1.1/" xmlns:inkscape="http://www.inkscape.org/namespaces/inkscape" xmlns:rdf="http://www.w3.org/1999/02/22-rdf-syntax-ns#" xmlns:sodipodi="http://sodipodi.sourceforge.net/DTD/sodipodi-0.dtd" xmlns:svg="http://www.w3.org/2000/svg"
	 xmlns="http://www.w3.org/2000/svg" xmlns:xlink="http://www.w3.org/1999/xlink" x="0px" y="0px" viewBox="0 0 156.1 56.4"
	 style="enable-background:new 0 0 156.1 56.4;" xml:space="preserve">
<style type="text/css">
	.st0{fill:#FFFFFF;}
</style>
<sodipodi:namedview  bordercolor="#666666" borderopacity="1" gridtolerance="10" guidetolerance="10" id="namedview7" inkscape:current-layer="g4134" inkscape:cx="66.520761" inkscape:cy="3.8405351" inkscape:pageopacity="0" inkscape:pageshadow="2" inkscape:window-height="1017" inkscape:window-maximized="1" inkscape:window-width="1920" inkscape:window-x="-8" inkscape:window-y="-8" inkscape:zoom="6.2945963" objecttolerance="10" pagecolor="#ffffff" showgrid="false">
	</sodipodi:namedview>
<g id="g3" transform="matrix(0.25093633,0,0,0.25093633,-104.08713,-71.675312)">
	<g id="g4134">
		<path id="path5" inkscape:connector-curvature="0" class="st0" d="M481,374.2c-7.2,0-13.1,2.8-17.7,8.3
			c-4.5,5.5-6.7,12.7-6.7,21.4c0,9,2.2,16,6.7,21.5s10.5,8.1,17.7,8.1c11.2,0,19.2-4.7,24-13.8l29.6,17
			c-4.9,9.4-12.1,16.6-21.7,21.7c-9.7,5.1-21,7.7-34,7.7c-12.6,0-23.6-2.6-33-7.7c-9.5-5.1-16.9-12.4-22.1-21.7
			c-5.2-9.4-7.8-20.2-7.8-32.7c0-12.6,2.7-23.6,7.9-33.3c5.2-9.7,12.7-17,22.3-22.2c9.5-5.2,20.7-7.8,33.1-7.8
			c12.2,0,23.1,2.6,32.6,7.6c9.5,5.1,16.9,12.2,22.2,21.4l-29.2,17C499.3,378.4,491.2,374.2,481,374.2z M825.4,296.7v168.2H785V449
			c-4.2,5.7-9.4,10.1-15.5,13c-6.2,2.9-13,4.4-20.7,4.4c-11.3,0-21.3-2.7-29.9-7.9s-15.3-12.8-20-22.3c-4.8-9.7-7.1-20.7-7.1-33.3
			c0-12.4,2.3-23.3,7-32.7c4.7-9.4,11.3-16.6,19.7-21.7c8.5-5.1,18.3-7.7,29.4-7.7c7.9,0,14.9,1.5,21.2,4.5
			c6.3,3,11.6,7.3,15.9,12.9v-61.7h40.3L825.4,296.7z M777.8,426.3c4.9-5.7,7.2-13,7.2-22.1c0-9.2-2.4-16.6-7.2-22.2
			c-4.9-5.6-11.2-8.4-19.1-8.4c-7.8,0-14.2,2.8-19.2,8.5c-4.9,5.7-7.3,13-7.3,22.1c0,9.1,2.4,16.4,7.3,22.1
			c4.9,5.7,11.3,8.5,19.2,8.5C766.7,434.8,773,431.9,777.8,426.3z M1022.6,352.4c9.3,7.8,14.1,18.7,14.3,32.8v79.8h-39.6v-13.8
			c-8.1,10.5-20.5,15.7-36.9,15.7c-13,0-23.3-3.5-30.7-10.6c-7.4-7-11.2-16.3-11.2-27.8c0-11.6,4.1-20.7,12.1-27.2
			c8-6.5,19.7-9.9,34.8-10h32v-1.4c0-5.9-2-10.5-6-13.6c-4-3.1-9.8-4.8-17.3-4.8c-5.1,0-10.9,0.8-17.3,2.4
			c-6.4,1.6-12.9,4.1-19.4,7.2l-11-27.2c10-4.5,19.5-7.9,28.6-10.1c9.2-2.2,18.6-3.3,28.4-3.3
			C1000.2,340.6,1013.3,344.6,1022.6,352.4z M988.6,434.9c4.5-2.9,7.4-6.7,8.6-11.5v-10.7h-24c-11.3,0-17,4.2-17,12.7
			c0,4.2,1.5,7.6,4.4,10.1c2.9,2.4,7,3.7,12.1,3.7C978.9,439.3,984.1,437.8,988.6,434.9L988.6,434.9z M665.4,371l27.7-17.1
			l-2.3-25.8l-24.4,18.6l13-37.7l-25.1,5.9l-8.7,36.7c-0.7-0.3-1.3-0.9-2.1-1.3c-9.8-5.1-21.3-7.7-34.5-7.7c-13.4,0-25,2.6-34.9,7.6
			c-9.9,5-17.6,12.3-22.8,21.7c-5.3,9.4-8,20.6-8,33.3c0,12.8,2.7,23.8,8,33.3c5.3,9.4,12.9,16.6,22.8,21.7c9.9,5,21.5,7.6,34.9,7.6
			c13.1,0,24.6-2.6,34.5-7.7c9.8-5.1,17.4-12.3,22.8-21.7c5.3-9.3,8-20.3,8-33.1c0-12.8-2.7-23.8-8-33.1
			C666,371.8,665.6,371.4,665.4,371z M642,419.5c-2.1,3.7-4.8,6.6-8.3,9c-3.5,2.2-7.3,3.8-11.6,4.8c-4.3,0.9-8.7,1.4-13.3,1.4
			s-9-0.5-13.4-1.4c-4.4-0.9-8.3-2.6-11.6-4.8c-3.4-2.2-6.2-5.2-8.3-9c-2.1-3.7-3.1-8.4-3.1-13.8c0-5.6,1-10.2,3.1-14
			c2.1-3.8,4.9-6.7,8.3-9.1c3.4-2.3,7.2-3.8,11.6-4.8c4.4-0.9,8.8-1.4,13.4-1.4s9,0.5,13.3,1.4c4.3,0.9,8.3,2.6,11.6,4.8
			c3.5,2.2,6.2,5.2,8.3,9.1s3,8.5,3,14C645.1,411.1,644.1,415.7,642,419.5z M612.5,405.5c2,5.3,7.9,8.1,13.3,6.2
			c5.3-2,8.1-7.9,6.2-13.3L612.5,405.5z M591.8,411.8c5.3,2,11.3-0.8,13.3-6.2l-19.4-7.1C583.7,403.9,586.5,409.8,591.8,411.8z
			 M847.1,342.3v19.7h13V450l40.3-15.5v-92.2h-53.4V342.3z M876,328.9c6.2,0,11.3-2.1,15.2-6.2c4-4.1,6-9.2,6-15.5
			c0-6.4-2-11.5-6-15.6c-4-4-9.1-6-15.2-6c-6.2,0-11.3,2-15.2,6c-4,4-6,9.2-6,15.6c0,6.2,2,11.4,6,15.5
			C864.7,326.8,869.7,328.9,876,328.9z M860.4,456.3l-0.6,5.9c-0.6,5-2,8.6-4.3,10.9c-2.3,2.3-5.5,3.3-9.4,2.9
			c-2.7-0.2-5.9-1.2-9.8-2.7l-10.9,27.8c8.3,4.1,17.1,6.6,26.5,7.6c13.3,1.4,24.1-1.2,32.6-7.6c8.5-6.5,13.4-16,14.8-28.6l2.1-20
			L860.4,456.3L860.4,456.3z"/>
	</g>
</g>
</svg>
