<?xml version="1.0" encoding="utf-8"?>
<!-- Generator: Adobe Illustrator 20.1.0, SVG Export Plug-In . SVG Version: 6.00 Build 0)  -->
<svg version="1.1" id="Слой_1" xmlns="http://www.w3.org/2000/svg" xmlns:xlink="http://www.w3.org/1999/xlink" x="0px" y="0px"
	 viewBox="0 0 25.1 25.1" style="enable-background:new 0 0 25.1 25.1;" xml:space="preserve">
<style type="text/css">
	.st0{fill:#E24B6C;}
</style>
<path class="st0" d="M25.1,19.9c0,0.3-0.1,0.7-0.2,1.3c-0.1,0.5-0.2,0.9-0.4,1.2c-0.3,0.6-1,1.2-2.2,1.9c-1.1,0.6-2.2,0.9-3.3,0.9
	c-0.3,0-0.6,0-0.9-0.1s-0.7-0.1-1-0.2c-0.4-0.1-0.7-0.2-0.8-0.3s-0.5-0.2-1-0.4c-0.5-0.2-0.8-0.3-0.9-0.3c-1.2-0.4-2.2-0.9-3.1-1.5
	c-1.5-0.9-3.1-2.2-4.7-3.9c-1.6-1.6-2.9-3.2-3.9-4.7c-0.6-0.9-1.1-2-1.5-3.1c0-0.1-0.1-0.4-0.3-0.9S0.6,9,0.5,8.8S0.4,8.4,0.3,8
	S0.1,7.3,0.1,7C0,6.7,0,6.4,0,6.1C0,5,0.3,3.9,0.9,2.7c0.7-1.2,1.3-1.9,1.9-2.2C3.1,0.4,3.5,0.3,4,0.2S5,0,5.3,0
	c0.2,0,0.3,0,0.4,0.1c0.2,0.1,0.5,0.5,0.9,1.4c0.1,0.2,0.3,0.5,0.5,1c0.2,0.4,0.4,0.8,0.6,1.1s0.4,0.7,0.6,1c0,0,0.1,0.2,0.3,0.4
	C8.8,5.2,8.9,5.4,9,5.5S9.1,5.8,9.1,6S8.9,6.5,8.6,6.9s-0.7,0.7-1.1,1c-0.4,0.3-0.7,0.6-1.1,1C6.1,9.2,5.9,9.5,5.9,9.7
	c0,0.1,0,0.2,0.1,0.4s0.1,0.3,0.2,0.4c0,0.1,0.1,0.2,0.3,0.4c0.1,0.2,0.2,0.3,0.2,0.3c0.9,1.6,1.9,3,3.1,4.2s2.6,2.2,4.2,3.1
	c0,0,0.1,0.1,0.3,0.2s0.3,0.2,0.4,0.3c0.1,0,0.2,0.1,0.4,0.2s0.3,0.1,0.4,0.1c0.2,0,0.5-0.2,0.8-0.5s0.6-0.7,0.9-1.1s0.6-0.8,1-1.1
	c0.4-0.3,0.7-0.5,0.9-0.5c0.2,0,0.3,0,0.5,0.1s0.4,0.2,0.6,0.4c0.3,0.2,0.4,0.3,0.4,0.3c0.3,0.2,0.6,0.4,1,0.6
	c0.3,0.2,0.7,0.4,1.1,0.6s0.7,0.4,1,0.5c0.8,0.4,1.3,0.7,1.4,0.9C25.1,19.6,25.1,19.7,25.1,19.9z"/>
</svg>
